<svg width="25" height="25" viewBox="0 0 25 25" fill="none" xmlns="http://www.w3.org/2000/svg">
<g clip-path="url(#clip0_342_1260)">
<path fill-rule="evenodd" clip-rule="evenodd" d="M12.0317 0.154072C12.1447 0.150579 12.2565 0.149414 12.3671 0.149414V0.150579C19.0038 0.150579 24.3817 5.53774 24.3677 12.1768C24.3537 18.8182 18.8629 24.1506 12.2227 24.1506H2.0586C1.31329 24.1506 0.935982 23.2516 1.45886 22.7194L3.69478 20.4427C1.55668 18.2068 0.274523 15.1464 0.373509 11.7867C0.559836 5.46321 5.70827 0.327589 12.0317 0.154072ZM12.3683 13.8864C10.2721 13.8864 8.56603 15.5924 8.56603 17.6886H6.81922C6.81922 14.6235 9.30319 12.1395 12.3683 12.1395C15.4333 12.1395 17.9173 14.6235 17.9173 17.6886H16.1705C16.1705 15.5924 14.4644 13.8864 12.3683 13.8864ZM16.1297 9.41336C15.5521 9.41336 15.0816 8.94288 15.0816 8.36527H13.3348C13.3348 9.90829 14.5867 11.1602 16.1297 11.1602C17.6727 11.1602 18.9246 9.90829 18.9246 8.36527H17.1778C17.1778 8.94288 16.7073 9.41336 16.1297 9.41336ZM7.62625 8.36527C7.62625 8.94288 8.09672 9.41336 8.67433 9.41336C9.25195 9.41336 9.72242 8.94288 9.72242 8.36527H11.4692C11.4692 9.90829 10.2173 11.1602 8.67433 11.1602C7.13132 11.1602 5.87944 9.90829 5.87944 8.36527H7.62625Z" fill="#FF6711"/>
</g>
<defs>
<clipPath id="clip0_342_1260">
<rect width="24" height="24" fill="white" transform="translate(0.367188 0.150635)"/>
</clipPath>
</defs>
</svg>
