<svg width="18" height="20" viewBox="0 0 18 20" fill="none" xmlns="http://www.w3.org/2000/svg">
<path d="M16.8574 11.5173C16.4098 12.1403 15.7576 12.4986 15.0714 12.4982H12.0753V15.8865C12.0745 16.7848 11.7762 17.646 11.2461 18.2813C10.7157 18.9164 9.99679 19.2738 9.24689 19.2747H8.77543C8.51516 19.2747 8.30414 19.0219 8.30414 18.7101V15.9882C8.30666 14.229 7.54385 12.5954 6.29126 11.6774C6.37223 11.3963 6.41532 11.1015 6.41848 10.8041V1.76912C6.41579 1.29737 6.3132 0.834351 6.12048 0.423067C6.50624 0.194472 6.93083 0.0753556 7.36123 0.0749781H13.8169C14.4953 0.0706293 15.1521 0.360292 15.6662 0.890673C16.1802 1.42103 16.5169 2.15618 16.614 2.96069L17.4022 9.25605C17.5042 10.0689 17.3053 10.8946 16.8575 11.5174L16.8574 11.5173ZM4.06161 0.074707H2.17593C1.80092 0.0750852 1.44151 0.253761 1.17637 0.571423C0.911222 0.889085 0.762204 1.3196 0.761719 1.76883V10.8038C0.762192 11.2531 0.91119 11.6836 1.17637 12.0012C1.44154 12.3188 1.80093 12.4975 2.17593 12.4979H4.06161C4.43647 12.4976 4.79603 12.3189 5.06102 12.0012C5.32618 11.6836 5.47534 11.253 5.47583 10.8038V1.76883C5.47535 1.31959 5.3262 0.889047 5.06102 0.571423C4.79601 0.253776 4.43646 0.0750943 4.06161 0.074707Z" fill="#E9133A"/>
</svg>
