<svg width="18" height="17" viewBox="0 0 18 17" fill="none" xmlns="http://www.w3.org/2000/svg">
<path d="M16.9863 10.5028C16.5387 11.0219 15.8865 11.3205 15.2003 11.3202H12.2042V14.1438C12.2034 14.8923 11.9051 15.6101 11.375 16.1395C10.8446 16.6687 10.1257 16.9665 9.3758 16.9673H8.90434C8.64407 16.9673 8.43304 16.7566 8.43304 16.4968V14.2285C8.43557 12.7626 7.67276 11.4012 6.42017 10.6362C6.50114 10.4019 6.54423 10.1563 6.54738 9.90845V2.37929C6.5447 1.98617 6.44211 1.60032 6.24939 1.25758C6.63514 1.06709 7.05973 0.967826 7.49014 0.967511H13.9458C14.6242 0.963887 15.281 1.20527 15.7951 1.64726C16.3092 2.08922 16.6458 2.70185 16.7429 3.37227L17.5311 8.6184C17.6331 9.29577 17.4342 9.98386 16.9864 10.5029L16.9863 10.5028ZM4.19052 0.967285H2.30484C1.92982 0.9676 1.57042 1.1165 1.30527 1.38122C1.04013 1.64593 0.89111 2.00469 0.890625 2.37905V9.90821C0.891099 10.2826 1.0401 10.6414 1.30527 10.906C1.57045 11.1707 1.92983 11.3197 2.30484 11.32H4.19052C4.56538 11.3197 4.92494 11.1708 5.18992 10.906C5.45509 10.6413 5.60425 10.2826 5.60473 9.90821V2.37905C5.60426 2.00468 5.4551 1.6459 5.18992 1.38122C4.92491 1.11651 4.56536 0.967608 4.19052 0.967285Z" fill="#D7D7D7"/>
</svg>
