<svg width="17" height="20" viewBox="0 0 17 20" fill="none" xmlns="http://www.w3.org/2000/svg">
<path d="M15.5017 7.83233C15.072 7.20933 14.4459 6.85105 13.7871 6.85139L10.9109 6.85139L10.9109 3.46314C10.9101 2.56482 10.6237 1.70358 10.1148 1.06829C9.60566 0.433187 8.91548 0.0758219 8.19557 0.0749024L7.74297 0.0749024C7.49311 0.0749024 7.29053 0.327699 7.29053 0.639481L7.29053 3.3614C7.29295 5.12057 6.56066 6.75419 5.35817 7.67216C5.4359 7.95332 5.47726 8.24807 5.48029 8.54551L5.48029 17.5805C5.47772 18.0522 5.37923 18.5153 5.19422 18.9265C5.56454 19.1551 5.97215 19.2743 6.38534 19.2746L12.5828 19.2746C13.2341 19.279 13.8645 18.9893 14.3581 18.4589C14.8516 17.9286 15.1748 17.1934 15.268 16.3889L16.0247 10.0936C16.1226 9.28073 15.9316 8.45501 15.5018 7.8322L15.5017 7.83233ZM3.2177 19.2749L1.40745 19.2749C1.04743 19.2745 0.702407 19.0958 0.447867 18.7782C0.193328 18.4605 0.0502703 18.03 0.0498048 17.5808L0.0498055 8.5458C0.0502601 8.09655 0.193298 7.66601 0.447868 7.34839C0.702439 7.03077 1.04744 6.85206 1.40745 6.85168L3.2177 6.85168C3.57757 6.85205 3.92275 7.03073 4.17713 7.34839C4.43169 7.66604 4.57488 8.09656 4.57535 8.5458L4.57535 17.5808C4.57489 18.03 4.43171 18.4606 4.17713 18.7782C3.92272 19.0958 3.57755 19.2745 3.2177 19.2749Z" fill="#D7D7D7"/>
</svg>
