<svg width="17" height="17" viewBox="0 0 17 17" fill="none" xmlns="http://www.w3.org/2000/svg">
<path d="M16.1394 7.43181C15.7097 6.91264 15.0836 6.61407 14.4248 6.61435L11.5486 6.61435L11.5486 3.79082C11.5478 3.04222 11.2614 2.32452 10.7525 1.79511C10.2434 1.26586 9.55317 0.968053 8.83327 0.967287L8.38067 0.967287C8.13081 0.967287 7.92822 1.17795 7.92822 1.43777L7.92822 3.70603C7.93065 5.17201 7.19835 6.53336 5.99586 7.29834C6.07359 7.53263 6.11496 7.77826 6.11799 8.02612L6.11799 15.5553C6.11541 15.9484 6.01692 16.3342 5.83191 16.677C6.20224 16.8675 6.60984 16.9667 7.02303 16.9671L13.2205 16.9671C13.8717 16.9707 14.5022 16.7293 14.9958 16.2873C15.4893 15.8454 15.8125 15.2327 15.9057 14.5623L16.6624 9.31617C16.7603 8.6388 16.5693 7.95071 16.1395 7.4317L16.1394 7.43181ZM3.8554 16.9673L2.04515 16.9673C1.68513 16.967 1.3401 16.8181 1.08556 16.5534C0.831023 16.2886 0.687966 15.9299 0.6875 15.5555L0.687501 8.02636C0.687955 7.652 0.830993 7.29321 1.08556 7.02853C1.34013 6.76384 1.68514 6.61492 2.04515 6.6146L3.8554 6.6146C4.21526 6.61491 4.56044 6.76381 4.81483 7.02853C5.06939 7.29323 5.21258 7.652 5.21304 8.02636L5.21304 15.5555C5.21259 15.9299 5.0694 16.2887 4.81483 16.5534C4.56042 16.8181 4.21525 16.967 3.8554 16.9673Z" fill="#44A5FF"/>
</svg>
