<svg width="32" height="33" viewBox="0 0 32 33" fill="none" xmlns="http://www.w3.org/2000/svg">
<g clip-path="url(#clip0_321_564)">
<path fill-rule="evenodd" clip-rule="evenodd" d="M15.9996 0.225586C15.8521 0.225586 15.703 0.227139 15.5524 0.231797C7.12111 0.463152 0.256539 7.31065 0.00810339 15.7419C-0.123878 20.2215 1.58567 24.3021 4.43646 27.2833L1.45524 30.3188C0.758067 31.0284 1.26115 32.2271 2.25489 32.2271H15.807C24.6606 32.2271 31.9817 25.1172 32.0003 16.2621C32.019 7.41002 24.8485 0.227139 15.9996 0.227139V0.225586ZM11.0759 13.5091C11.846 13.5091 12.4733 14.1364 12.4733 14.9066H14.8024C14.8024 12.8492 13.1332 11.1801 11.0759 11.1801C9.01852 11.1801 7.34934 12.8492 7.34934 14.9066L9.67842 14.9066C9.67842 14.1364 10.3057 13.5091 11.0759 13.5091ZM22.4138 14.9066C22.4138 14.1364 21.7865 13.5091 21.0164 13.5091C20.2462 13.5091 19.6189 14.1364 19.6189 14.9066L17.2899 14.9066C17.2899 12.8492 18.959 11.1801 21.0164 11.1801C23.0737 11.1801 24.7429 12.8492 24.7429 14.9066H22.4138Z" fill="white"/>
</g>
<defs>
<clipPath id="clip0_321_564">
<rect width="32" height="32" fill="white" transform="translate(0 0.227051)"/>
</clipPath>
</defs>
</svg>
