<svg width="25" height="25" viewBox="0 0 25 25" fill="none" xmlns="http://www.w3.org/2000/svg">
<g clip-path="url(#clip0_290_1442)">
<path fill-rule="evenodd" clip-rule="evenodd" d="M15.5992 5.63791C16.6766 6.71663 17.41 8.09052 17.7067 9.58593C18.0034 11.0813 17.8502 12.6311 17.2663 14.0395C16.6824 15.4478 15.694 16.6514 14.4262 17.4982C13.1584 18.345 11.668 18.797 10.1434 18.797C8.61876 18.797 7.12835 18.345 5.86054 17.4982C4.59272 16.6514 3.60441 15.4478 3.02051 14.0395C2.43661 12.6311 2.28333 11.0813 2.58005 9.58593C2.87676 8.09052 3.61016 6.71663 4.68754 5.63791C6.13542 4.19268 8.09761 3.38098 10.1434 3.38098C12.1892 3.38098 14.1513 4.19268 15.5992 5.63791V5.63791ZM18.0981 17.3464C19.6934 15.3233 20.4554 12.7671 20.2282 10.2007C20.0011 7.63438 18.8019 5.25179 16.8761 3.54031C14.9502 1.82884 12.4432 0.917832 9.8678 0.993636C7.29243 1.06944 4.84333 2.12633 3.02147 3.94811C1.19961 5.76989 0.142684 8.21889 0.066878 10.7942C-0.00892843 13.3694 0.902117 15.8764 2.61366 17.8021C4.3252 19.7279 6.70789 20.927 9.27435 21.1542C11.8408 21.3813 14.3971 20.6194 16.4203 19.0241L22.0368 24.6523C22.2608 24.8763 22.5647 25.0022 22.8816 25.0022C23.1985 25.0022 23.5024 24.8763 23.7265 24.6523C23.9505 24.4282 24.0764 24.1243 24.0764 23.8075C24.0764 23.4906 23.9505 23.1867 23.7265 22.9626L18.0981 17.3464Z" fill="#767676"/>
</g>
<rect x="9.03809" y="5.62988" width="2" height="11" rx="1" fill="#767676"/>
<rect x="15.5391" y="10.1299" width="2" height="11.0004" rx="1" transform="rotate(90 15.5391 10.1299)" fill="#767676"/>
<defs>
<clipPath id="clip0_290_1442">
<rect width="24.001" height="24" fill="white" transform="translate(0.046875 0.997559)"/>
</clipPath>
</defs>
</svg>
