<svg width="64" height="64" viewBox="0 0 64 64" fill="none" xmlns="http://www.w3.org/2000/svg">
<g clip-path="url(#clip0_446_1079)">
<path fill-rule="evenodd" clip-rule="evenodd" d="M31.9999 13.2895C33.1939 13.2895 34.3468 13.4773 35.4275 13.8215C35.8084 13.1331 36.3282 12.5385 36.9509 12.0743C37.8567 11.3963 38.9736 10.9948 40.183 10.9948C41.691 10.9948 43.0548 11.6154 44.043 12.6115C45.0311 13.6129 45.6384 14.995 45.6384 16.5231C45.6384 17.7488 45.2421 18.8857 44.5679 19.8036C44.1099 20.4347 43.518 20.9615 42.8386 21.3422C43.1783 22.4322 43.3585 23.5901 43.3585 24.7948C43.3585 26.8445 42.8284 28.769 41.902 30.4379L47.486 37.2806C48.258 38.2246 48.5771 39.4085 48.4742 40.5507C48.3712 41.6668 47.8566 42.7464 46.9559 43.5287H46.9508L46.8993 43.5756C45.9678 44.358 44.7995 44.6813 43.6724 44.577C43.1577 44.5301 42.6482 44.3893 42.1747 44.1598C42.1284 45.5627 41.938 46.9657 41.5726 48.3739C41.2432 49.6412 40.6822 50.8408 39.8382 51.6961C39.0508 52.4941 38.0369 52.9948 36.7708 52.9948C35.4378 52.9948 34.3776 52.4523 33.6314 51.5709C32.8748 50.6739 32.4734 49.4378 32.4734 48.0922C32.4734 46.877 32.18 46.1104 31.8146 45.8131L31.7735 45.7818C31.4647 46.0373 31.2228 46.7727 31.2228 48.0922C31.2228 49.4117 30.8316 50.6739 30.0854 51.5709C29.3494 52.4523 28.2995 52.9948 26.9665 52.9948C25.6336 52.9948 24.5322 52.395 23.7293 51.4666C23.0139 50.6322 22.525 49.5473 22.1802 48.4208C21.7633 47.0491 21.5369 45.6827 21.4545 44.3215C21.0891 44.4623 20.7031 44.5509 20.3171 44.5875C19.19 44.697 18.0217 44.3684 17.0902 43.5861L17.0387 43.5444H17.0336C16.1329 42.7568 15.6183 41.6824 15.5154 40.5611C15.4073 39.4189 15.7315 38.235 16.5035 37.291L22.0876 30.4484C21.1612 28.7794 20.6311 26.8549 20.6311 24.8053C20.6311 23.6005 20.8112 22.4427 21.1509 21.3526C20.4715 20.9667 19.8848 20.4399 19.4216 19.8141C18.7474 18.8909 18.3511 17.7592 18.3511 16.5336C18.3511 15.0054 18.9636 13.6233 19.9517 12.622C20.9399 11.6206 22.3037 11.0052 23.8117 11.0052C25.0211 11.0052 26.1379 11.4068 27.0437 12.0848C27.6665 12.549 28.1863 13.1435 28.5671 13.832C29.6479 13.4877 30.8008 13.3 31.9948 13.3L31.9999 13.2895ZM32.0256 30.0885C31.4492 30.0885 30.986 30.4275 30.986 30.85C30.986 31.2724 31.4544 31.6114 32.0256 31.6114C32.5969 31.6114 33.0653 31.2724 33.0653 30.85C33.0653 30.4275 32.5969 30.0885 32.0256 30.0885ZM32.0256 25.9474C30.7236 25.9474 29.6685 26.7193 29.6685 27.6685C29.6685 28.6177 30.7236 29.3896 32.0256 29.3896C33.3277 29.3896 34.3828 28.6177 34.3828 27.6685C34.3828 26.7193 33.3277 25.9474 32.0256 25.9474ZM28.2377 22.8234C27.5327 22.8234 26.9665 23.4023 26.9665 24.1116C26.9665 24.8209 27.5378 25.3998 28.2377 25.3998C28.9377 25.3998 29.509 24.8209 29.509 24.1116C29.509 23.4023 28.9377 22.8234 28.2377 22.8234ZM35.7672 22.8234C35.0621 22.8234 34.496 23.4023 34.496 24.1116C34.496 24.8209 35.0673 25.3998 35.7672 25.3998C36.4672 25.3998 37.0384 24.8209 37.0384 24.1116C37.0384 23.4023 36.4672 22.8234 35.7672 22.8234ZM37.4553 14.6977C38.4074 15.2245 39.2721 15.8868 40.0338 16.6587C40.8006 17.4358 41.4594 18.3225 41.9792 19.2977C42.3034 19.0839 42.5865 18.8075 42.8129 18.4946C43.2092 17.9469 43.4459 17.2689 43.4459 16.5283C43.4459 15.6156 43.0805 14.7864 42.4887 14.1866C41.8968 13.5868 41.0785 13.2165 40.1779 13.2165C39.4522 13.2165 38.778 13.4564 38.2376 13.858C37.9288 14.0875 37.6612 14.3744 37.4502 14.6977H37.4553ZM22.0155 19.2977C22.5405 18.3277 23.1941 17.4358 23.9609 16.6587C24.7226 15.8868 25.5924 15.2245 26.5394 14.6977C26.3284 14.3744 26.0607 14.0875 25.7519 13.858C25.2115 13.4512 24.5373 13.2165 23.8117 13.2165C22.911 13.2165 22.0927 13.5868 21.5008 14.1866C20.909 14.7864 20.5436 15.6156 20.5436 16.5283C20.5436 17.2689 20.7803 17.9469 21.1766 18.4946C21.4082 18.8127 21.6913 19.0839 22.0104 19.2977H22.0155ZM39.9617 42.0684L39.936 41.7502C39.8382 40.5298 39.6426 39.3094 39.375 38.0942V38.0681L39.3595 38.0264L39.3493 37.9743V37.9586L39.3287 37.8908V37.8804L39.3132 37.823L39.3029 37.7865V37.7552L39.2824 37.6926L39.2669 37.6196V37.5987L39.2515 37.5518C39.2052 37.3432 39.1537 37.1346 39.1022 36.9312C38.9427 36.2897 38.7625 35.6534 38.5773 35.0171V35.0067L38.5618 34.9597L38.5515 34.9232V34.9128L38.5361 34.8659L38.5258 34.8241L38.5104 34.772L38.5001 34.7303L38.4846 34.6781L38.4692 34.6364L38.4537 34.5842L38.4383 34.5373L38.4229 34.4903L38.4074 34.4434L38.392 34.3965L38.3765 34.3495C36.6988 35.5021 34.6967 36.2167 32.5403 36.3157H32.4734H32.4425H32.4065H32.3396H32.3344H32.2727H32.2264H32.2058C32.1389 36.3157 32.072 36.3157 32.0051 36.3157H31.8867H31.8712H31.8043H31.7735H31.7374H31.6705H31.6551H31.6036C29.2619 36.2323 27.1003 35.4291 25.3248 34.12L25.3093 34.1722L25.2939 34.2139V34.2244L25.2733 34.2765L25.263 34.3078V34.3287L25.2373 34.3808V34.4017L25.2218 34.433L25.2064 34.4851V34.5008L25.191 34.5425L25.1755 34.5947L25.1601 34.6468L25.1446 34.6937L25.1292 34.7563L25.1189 34.7928V34.8085L25.0983 34.8606L25.088 34.8919V34.918L25.0623 34.9702V34.991L25.0469 35.0275L25.0314 35.0797V35.0901L25.016 35.1371L25.0005 35.1892L24.9851 35.2414L24.9697 35.2883V35.2987L24.9491 35.3509L24.9388 35.3874V35.4083L24.9182 35.4604V35.4865L24.9028 35.5126L24.8873 35.5647V35.5804L24.8719 35.6169L24.8564 35.669L24.841 35.7212L24.8256 35.7733L24.8101 35.8307L24.7998 35.8724V35.8829L24.7792 35.935L24.7689 35.9663V35.9872L24.7484 36.0393V36.0602L24.7175 36.1436V36.1593L24.6866 36.2532C24.3212 37.604 24.0175 38.9548 23.8323 40.2951V40.3056V40.316L23.822 40.389V40.4047L23.8117 40.462L23.8014 40.5194V40.535L23.7911 40.6081V40.6341L23.7808 40.6759L23.7705 40.7489C23.7139 41.2339 23.6727 41.719 23.647 42.204V42.2874C23.5595 44.1128 23.7293 45.9278 24.28 47.7376C24.5425 48.6033 24.8976 49.4117 25.3865 49.9802C25.788 50.4496 26.3078 50.7469 26.982 50.7469C27.6202 50.7469 28.1091 50.507 28.4333 50.1106C28.8399 49.6256 29.0509 48.8902 29.0509 48.0609C29.0509 45.9956 29.6428 44.6657 30.4199 44.0294C30.8471 43.68 31.3257 43.5183 31.8249 43.5287C32.3087 43.5391 32.7719 43.7165 33.1836 44.0503C34.0122 44.7178 34.671 46.1051 34.671 48.0609C34.671 48.885 34.8872 49.6151 35.2989 50.1002C35.6386 50.5018 36.1326 50.7469 36.7811 50.7469C37.4296 50.7469 37.9031 50.4966 38.2993 50.1002C38.85 49.5421 39.2309 48.6972 39.4728 47.7793C39.972 45.8704 40.0955 43.9564 39.972 42.0319L39.9617 42.0684ZM40.955 35.3822C41.2226 36.3418 41.4542 37.3015 41.6446 38.2611L41.6601 38.3289L41.6704 38.3863V38.4019L41.6858 38.4697L41.6961 38.5115L41.7167 38.6053V38.6366C41.8865 39.4972 42.01 40.3577 42.0924 41.2183L42.3394 41.5208L42.3806 41.5729C42.7717 42.0527 43.3173 42.3239 43.8886 42.3813C44.4547 42.4335 45.0414 42.2718 45.5149 41.8754C45.9884 41.479 46.256 40.921 46.3126 40.3473C46.3641 39.7736 46.2045 39.1738 45.8134 38.6992L40.6102 32.3259C40.4712 32.4876 40.3271 32.6493 40.183 32.8005L40.2036 32.8631V32.884L40.2242 32.9257L40.2448 32.9883V33.0092L40.2654 33.0509L40.2859 33.1135V33.1343L40.3065 33.176L40.3271 33.2386V33.2595L40.3477 33.3012L40.3683 33.3638V33.3847L40.3889 33.4264L40.4095 33.489V33.5098L40.43 33.5516L40.4506 33.6141V33.635L40.4712 33.6767L40.4918 33.7393V33.7602L40.5124 33.8019L40.533 33.8645V33.8853L40.5536 33.9271L40.5741 33.9897V34.0105L40.5947 34.0522L40.6153 34.1148V34.1357L40.6359 34.1774L40.6719 34.3026L40.6925 34.3652V34.3808L40.7131 34.4278L40.7337 34.4903V34.506L40.7543 34.5529L40.7749 34.6155V34.6312L40.7955 34.6781L40.816 34.7407V34.7563L40.8366 34.8033L40.8521 34.8659V34.8815L40.8726 34.9284L40.9241 35.1162V35.1318L40.9396 35.1788L40.991 35.3665V35.3822H40.955ZM21.4803 41.7346C21.5163 41.2026 21.5729 40.6759 21.645 40.1439C21.892 38.3028 22.3397 36.467 22.8801 34.6364L22.9007 34.5634L22.9419 34.4225L22.9522 34.386L22.9625 34.3547L23.0294 34.1409L23.05 34.0679L23.0654 34.0105V33.9949L23.0911 33.9219L23.1014 33.8853L23.1117 33.8488L23.1323 33.7758V33.755L23.1529 33.7028L23.1735 33.6298L23.1941 33.5568L23.2095 33.5046V33.489L23.2353 33.416L23.2455 33.3795L23.2558 33.3429L23.2764 33.2699V33.2543L23.297 33.2021L23.3176 33.1343L23.3382 33.0613L23.3536 33.0092V32.9883L23.3845 32.9153L23.3948 32.884L23.4051 32.8475L23.4257 32.7745V32.7588L23.4463 32.7014L23.4668 32.6336L23.4874 32.5606L23.5029 32.5085V32.4876C23.4617 32.4302 23.4102 32.3729 23.3639 32.3155L18.1607 38.6888C17.7696 39.1686 17.61 39.7632 17.6615 40.3369C17.7129 40.9106 17.9857 41.4686 18.4592 41.865C18.9327 42.2614 19.5194 42.423 20.0855 42.3709C20.5848 42.3239 21.0737 42.1049 21.4494 41.7242L21.4803 41.7346ZM24.3984 29.9998C24.7226 30.4484 25.6181 31.3663 26.1122 31.8722C26.1997 31.9608 26.2872 32.0495 26.3644 32.133C27.8723 33.3221 29.7508 34.0522 31.7992 34.094H31.8352C31.8918 34.094 31.9433 34.094 31.9999 34.094H32.0565H32.1131H32.1697H32.2264H32.3344C34.5629 34.0157 36.5855 33.1291 38.1347 31.7209C38.3096 31.481 38.5309 31.2307 38.7574 30.9751C39.128 30.5579 39.5345 30.0989 39.6426 29.9581C40.6153 28.4821 41.1814 26.7089 41.1814 24.8C41.1814 22.234 40.1573 19.908 38.4949 18.2286C36.8326 16.544 34.5423 15.5061 32.0102 15.5061C29.4781 15.5061 27.1827 16.544 25.5255 18.2286C23.8631 19.9132 22.839 22.234 22.839 24.8C22.839 26.7245 23.4154 28.5134 24.4035 29.9946L24.3984 29.9998Z" fill="#D7D7D7"/>
</g>
<defs>
<clipPath id="clip0_446_1079">
<rect width="33" height="42" fill="white" transform="translate(15.5 11)"/>
</clipPath>
</defs>
</svg>
