<svg width="64" height="64" viewBox="0 0 64 64" fill="none" xmlns="http://www.w3.org/2000/svg">
<path d="M20.9544 43.5198H19.9117V47.3267C20.2118 47.3671 20.5723 47.3671 21.0944 47.3671C22.4775 47.3671 23.7005 46.8465 23.7005 45.4232C23.7005 44 22.4789 43.5198 20.9544 43.5198ZM23.379 39.6724C23.379 38.6501 22.5973 38.1093 21.2141 38.1093C20.5535 38.1093 20.1714 38.1497 19.9117 38.19V41.3351H20.9141C22.5179 41.3351 23.379 40.6733 23.379 39.6724ZM27.6185 23.7895L29.8291 22.9918L28.4406 21.095C28.0491 20.5663 27.6024 19.8883 27.2404 19.3489L27.2108 19.3597C27.2768 20.0067 27.4019 20.8165 27.4476 21.4542L27.6199 23.7895H27.6185ZM49.9196 34.301L37.1054 30.1295C36.9924 30.0932 36.878 30.0676 36.765 30.0474L38.105 29.5752C39.4101 29.1152 40.095 27.6839 39.6348 26.3804L35.1504 13.6721C34.6903 12.3672 33.2587 11.6825 31.9549 12.1439L19.2457 16.6262C17.9406 17.0863 17.2571 18.5176 17.7173 19.8211L22.2003 32.528C22.3376 32.9181 22.5636 33.2517 22.8462 33.5167H14.8568C13.4737 33.5167 12.3516 34.6386 12.3516 36.0215V49.4952C12.3516 50.8781 13.4737 52 14.8568 52H28.333C29.7161 52 30.8382 50.8781 30.8382 49.4952V47.4505C31.005 47.5541 31.1853 47.6415 31.3804 47.7047L44.1946 51.8762C45.5105 52.304 46.9246 51.5857 47.3524 50.2701L51.5247 37.4582C51.9525 36.1426 51.2341 34.7288 49.9182 34.301H49.9196ZM28.1876 17.0957L34.8975 25.9768L32.4635 26.8552L30.7656 24.567L27.9011 25.6001L28.115 28.4237L25.7712 29.2699L25.2196 18.1678L28.1876 17.097V17.0957ZM25.5021 48.4096C24.5199 49.1912 22.8771 49.6324 20.1916 49.6324C18.6887 49.6324 17.5666 49.5329 16.8844 49.432V36.1668C17.6863 36.0067 19.3089 35.887 20.832 35.887C22.6955 35.887 23.8378 36.0673 24.82 36.6484C25.7618 37.1488 26.4439 38.0716 26.4439 39.2931C26.4439 40.5145 25.7429 41.6176 24.2199 42.1786V42.2189C25.7631 42.64 26.9054 43.8023 26.9054 45.5443C26.9054 46.7671 26.3444 47.7289 25.5021 48.4096ZM33.9462 31.7357L30.8369 41.2827V36.0215C30.8369 34.6386 29.7147 33.5167 28.3316 33.5167H26.9256L34.436 30.868C34.222 31.1142 34.0525 31.4061 33.9449 31.7357H33.9462ZM45.306 38.3151C44.8337 37.8981 44.1408 37.4259 43.1815 37.1017C41.0301 36.374 38.9204 37.1071 38.0189 39.7733C37.2076 42.1732 38.1185 44.1641 40.5363 44.9807C41.3543 45.2564 42.3204 45.3856 42.9258 45.3533L42.6191 47.6065C42.0365 47.6872 40.8269 47.5756 39.3698 47.0819C35.2285 45.6815 33.9664 42.383 35.1208 38.9716C36.5039 34.8835 40.1878 33.5948 43.8138 34.8202C45.2185 35.2951 46.1886 35.9395 46.5841 36.3511L45.306 38.3151Z" fill="#D7D7D7"/>
</svg>
