<svg width="64" height="64" viewBox="0 0 64 64" fill="none" xmlns="http://www.w3.org/2000/svg">
<g clip-path="url(#clip0_446_1081)">
<path d="M32.9225 31.3842H51.6916C51.8617 31.3842 51.9992 31.2467 51.9992 31.0766V17.5388C51.9992 14.4799 49.5192 12 46.4604 12H32.9218C32.7517 12 32.6143 12.1375 32.6143 12.3075V31.0766C32.6143 31.2467 32.7517 31.3842 32.9218 31.3842H32.9225ZM37.0922 18.7566L37.7449 18.1039C37.9851 17.8637 38.3752 17.8637 38.6154 18.1039L41.2263 20.7148L43.8372 18.1039C44.0775 17.8637 44.4675 17.8637 44.7078 18.1039L45.3605 18.7566C45.6007 18.9969 45.6007 19.3869 45.3605 19.6272L42.7496 22.2381L45.3605 24.849C45.6007 25.0892 45.6007 25.4793 45.3605 25.7195L44.7078 26.3722C44.4675 26.6125 44.0775 26.6125 43.8372 26.3722L41.2263 23.7613L38.6154 26.3722C38.3752 26.6125 37.9851 26.6125 37.7449 26.3722L37.0922 25.7195C36.8519 25.4793 36.8519 25.0892 37.0922 24.849L39.703 22.2381L37.0922 19.6272C36.8519 19.3869 36.8519 18.9969 37.0922 18.7566Z" fill="#D7D7D7"/>
<path d="M31.3842 31.0766V12.3075C31.3842 12.1375 31.2467 12 31.0766 12H17.5388C14.4799 12 12 14.4799 12 17.5388V31.0774C12 31.2474 12.1375 31.3849 12.3075 31.3849H31.0766C31.2467 31.3849 31.3842 31.2474 31.3842 31.0774V31.0766ZM17.389 21.7764C17.389 21.4363 17.6647 21.1613 18.0041 21.1613H27.5424C27.8825 21.1613 28.1575 21.437 28.1575 21.7764V22.6998C28.1575 23.0399 27.8818 23.3149 27.5424 23.3149H18.0041C17.6639 23.3149 17.389 23.0391 17.389 22.6998V21.7764Z" fill="#D7D7D7"/>
<path d="M31.0766 32.615H12.3075C12.1375 32.615 12 32.7525 12 32.9225V46.4611C12 49.52 14.4799 51.9999 17.5388 51.9999H31.0774C31.2474 51.9999 31.3849 51.8624 31.3849 51.6923V32.9225C31.3849 32.7525 31.2474 32.615 31.0774 32.615H31.0766ZM27.5424 41.7676H23.8504V45.4596C23.8504 45.7997 23.5746 46.0747 23.2353 46.0747H22.3119C21.9718 46.0747 21.6968 45.799 21.6968 45.4596V41.7676H18.0048C17.6647 41.7676 17.3897 41.4919 17.3897 41.1525V40.2291C17.3897 39.889 17.6654 39.614 18.0048 39.614H21.6968V35.922C21.6968 35.5819 21.9725 35.3069 22.3119 35.3069H23.2353C23.5754 35.3069 23.8504 35.5826 23.8504 35.922V39.614H27.5424C27.8825 39.614 28.1575 39.8898 28.1575 40.2291V41.1525C28.1575 41.4926 27.8818 41.7676 27.5424 41.7676Z" fill="#D7D7D7"/>
<path d="M32.6152 32.9225V51.6916C32.6152 51.8617 32.7527 51.9992 32.9228 51.9992H46.4614C49.5202 51.9992 52.0001 49.5192 52.0001 46.4604V32.9218C52.0001 32.7517 51.8626 32.6143 51.6926 32.6143H32.9228C32.7527 32.6143 32.6152 32.7517 32.6152 32.9218V32.9225ZM46.6112 42.8892C46.6112 43.2294 46.3355 43.5043 45.9961 43.5043H36.4578C36.1177 43.5043 35.8427 43.2286 35.8427 42.8892V41.9659C35.8427 41.6258 36.1184 41.3508 36.4578 41.3508H45.9961C46.3362 41.3508 46.6112 41.6265 46.6112 41.9659V42.8892ZM46.6112 39.4158C46.6112 39.7559 46.3355 40.0309 45.9961 40.0309H36.4578C36.1177 40.0309 35.8427 39.7552 35.8427 39.4158V38.4924C35.8427 38.1523 36.1184 37.8773 36.4578 37.8773H45.9961C46.3362 37.8773 46.6112 38.153 46.6112 38.4924V39.4158Z" fill="#D7D7D7"/>
</g>
<defs>
<clipPath id="clip0_446_1081">
<rect width="40" height="40" fill="white" transform="translate(12 12)"/>
</clipPath>
</defs>
</svg>
