<svg width="64" height="64" viewBox="0 0 64 64" fill="none" xmlns="http://www.w3.org/2000/svg">
<g clip-path="url(#clip0_446_1082)">
<path d="M19.4294 36.2825C19.337 36.2468 19.2446 36.2111 19.1538 36.1753C18.5971 35.9528 18.0821 35.7173 17.6137 35.4721C17.5358 35.4315 17.4587 35.3901 17.3832 35.3486C17.2321 35.2658 17.0859 35.1822 16.9453 35.0969C16.8047 35.0124 16.669 34.9264 16.5396 34.8403C16.4095 34.7534 16.2849 34.6665 16.166 34.5788C16.0471 34.4911 15.9339 34.4026 15.8262 34.3132C15.7185 34.2239 15.6165 34.1346 15.5209 34.0444C15.2333 33.774 14.9979 33.5003 14.8196 33.2259C14.7304 33.0886 14.6557 32.9514 14.5946 32.8149C14.5641 32.7467 14.5376 32.6785 14.5151 32.6103C14.4468 32.4056 14.4114 32.2018 14.4114 32.0012C14.4114 31.8006 14.4468 31.5968 14.5151 31.3922C14.5376 31.324 14.5641 31.2557 14.5946 31.1875C14.6549 31.0503 14.7304 30.913 14.8196 30.7766C14.9979 30.5021 15.2333 30.2285 15.5209 29.958C15.6165 29.8679 15.7185 29.7786 15.8262 29.6892C15.9033 29.6259 15.9837 29.5625 16.0664 29.4992C16.1331 29.448 16.2022 29.3977 16.2721 29.3465C16.3588 29.2848 16.4464 29.2231 16.5388 29.1614C16.7099 29.0477 16.8915 28.9356 17.0803 28.8244C17.1325 28.7935 17.1855 28.7635 17.2386 28.7334C17.3599 28.6652 17.4844 28.597 17.6121 28.5296C17.731 28.4679 17.8532 28.4061 17.9777 28.346C18.1351 28.2689 18.2982 28.1934 18.4645 28.1179C18.6863 28.0188 18.9152 27.9213 19.1522 27.8263C19.243 27.7898 19.3354 27.754 19.4278 27.7191C19.1828 26.9143 18.9739 26.1258 18.8004 25.356C18.7104 25.3893 18.6204 25.4234 18.5312 25.4575C18.442 25.4916 18.3537 25.5257 18.2661 25.5606C18.14 25.611 18.0154 25.6621 17.8925 25.7141C17.6467 25.8172 17.4089 25.9236 17.1775 26.0324C16.8312 26.1957 16.5002 26.3638 16.1869 26.5375C15.978 26.6537 15.7764 26.7714 15.582 26.8916C15.3876 27.0118 15.2012 27.1344 15.022 27.2587C14.8429 27.3829 14.6709 27.5104 14.507 27.6387C14.2612 27.832 14.033 28.0293 13.8217 28.2315C13.1895 28.8374 12.7155 29.4805 12.4094 30.1513C12.3411 30.3007 12.2816 30.451 12.2302 30.6028C12.1531 30.831 12.0953 31.0617 12.0567 31.2947C12.0181 31.5278 11.998 31.7641 11.998 32.002C11.998 32.24 12.0173 32.4763 12.0567 32.7094C12.0953 32.9424 12.1531 33.1731 12.2302 33.4013C12.2816 33.5531 12.3411 33.7034 12.4094 33.8528C12.7155 34.5244 13.1887 35.1675 13.8217 35.7725C14.0322 35.9748 14.2612 36.1721 14.507 36.3654C14.6709 36.4945 14.8429 36.6212 15.022 36.7454C15.2012 36.8697 15.3876 36.9923 15.582 37.1125C15.7764 37.2327 15.978 37.3504 16.1869 37.4666C16.5002 37.6403 16.8312 37.8084 17.1775 37.9717C17.4089 38.0805 17.6467 38.1861 17.8925 38.29C18.0154 38.342 18.14 38.3931 18.2661 38.4435C18.4412 38.5133 18.6196 38.5815 18.7995 38.6481C18.9731 37.8791 19.1828 37.0897 19.427 36.285L19.4294 36.2825Z" fill="#D7D7D7"/>
<path d="M38.4544 23.7164C38.991 24.5058 39.5132 25.3244 40.0161 26.1673C40.0788 26.2712 40.1399 26.3768 40.2017 26.4816C40.511 26.5441 40.8155 26.6099 41.116 26.6797C41.9258 26.8665 42.7011 27.0801 43.4354 27.3172C43.5776 27.3635 43.719 27.4098 43.858 27.4577C44.1006 27.5413 44.3384 27.6282 44.5714 27.7176C44.6638 27.7533 44.7562 27.789 44.8469 27.8248C45.2181 27.9734 45.5708 28.1269 45.9034 28.286C46.236 28.4452 46.5493 28.6092 46.841 28.7765C47.0603 28.9024 47.2667 29.0299 47.462 29.1598C47.527 29.2029 47.5905 29.2467 47.6524 29.2898C47.7769 29.3766 47.8958 29.4652 48.0091 29.5537C48.1224 29.6422 48.23 29.7315 48.332 29.8209C48.4341 29.9102 48.5297 30.0003 48.6197 30.0913C49.2503 30.7247 49.5893 31.3744 49.5893 31.9997C49.5893 32.491 49.3797 32.9969 48.9844 33.4988C48.9121 33.5897 48.8342 33.6807 48.7506 33.7716C48.6871 33.8399 48.6189 33.9089 48.549 33.9763C48.4799 34.0437 48.4084 34.1103 48.332 34.1777C48.1794 34.3125 48.0139 34.4457 47.8355 34.5772C47.7166 34.6649 47.5921 34.7526 47.462 34.8387C47.413 34.8712 47.364 34.9037 47.3133 34.9354C47.1623 35.032 47.0048 35.1278 46.841 35.222C46.7678 35.2642 46.6939 35.3057 46.6184 35.3471C46.5043 35.4096 46.387 35.4713 46.2673 35.5322C46.0946 35.6208 45.9154 35.7076 45.7307 35.7937C45.6776 35.8181 45.6246 35.8425 45.5708 35.8668C45.3378 35.9716 45.0976 36.0747 44.8477 36.1746C44.757 36.2111 44.6646 36.2469 44.5722 36.2818C44.2669 36.3987 43.952 36.5108 43.6298 36.618C43.5655 36.6391 43.5013 36.661 43.4362 36.6813C42.8851 36.86 42.3114 37.024 41.7177 37.1743C41.5193 37.2246 41.3193 37.2725 41.1168 37.3196C40.9352 37.3619 40.7529 37.4025 40.5681 37.4423C40.4468 37.4682 40.3247 37.4934 40.2017 37.5178C40.1929 37.5194 40.1841 37.521 40.1752 37.5235C40.1045 37.5373 40.033 37.5511 39.9615 37.5649L39.9294 37.5706C39.7446 37.6063 39.559 37.6412 39.371 37.6737C39.2369 37.6972 39.1011 37.7208 38.9653 37.7427C38.8496 37.7614 38.7331 37.7801 38.6166 37.7979C38.1844 37.8645 37.7458 37.9254 37.3015 37.979C36.715 38.0497 36.1173 38.1082 35.5115 38.1545C35.3878 38.1642 35.2641 38.1731 35.1404 38.1821C34.8471 38.2024 34.5515 38.2194 34.2542 38.234C34.1626 38.2381 34.0703 38.2422 33.9787 38.2462C33.7722 38.2551 33.5657 38.2633 33.3577 38.269C32.9069 38.2819 32.453 38.2884 31.9967 38.2884C31.5404 38.2884 31.0865 38.2819 30.6358 38.269C30.4277 38.2633 30.2212 38.2551 30.0147 38.2462C29.7737 38.2357 29.5335 38.2243 29.2949 38.2105C29.0226 38.1942 28.7518 38.1756 28.4819 38.1553C28.314 38.1423 28.1461 38.1285 27.979 38.1138C27.6897 38.0879 27.4021 38.0594 27.1177 38.0286C26.9755 38.0131 26.8333 37.9969 26.6919 37.9799C26.2476 37.9263 25.809 37.8662 25.3776 37.7988C25.8098 37.8654 26.2485 37.9263 26.6935 37.9799C26.2485 37.9263 25.8098 37.8662 25.3776 37.7988C25.2611 37.7809 25.1446 37.7622 25.0289 37.7435C25.1446 37.7622 25.2611 37.7809 25.3776 37.7988C25.3776 37.7988 25.3776 37.7988 25.3768 37.7988C25.2603 37.7809 25.1438 37.7622 25.0281 37.7435C24.8923 37.7208 24.7566 37.6981 24.6224 37.6745C24.4344 37.6412 24.2488 37.6063 24.064 37.5714C24.0367 37.6591 24.0094 37.7468 23.9837 37.8337C23.7676 38.5524 23.5868 39.2524 23.4414 39.928C23.5322 39.9459 23.623 39.9638 23.7138 39.9816C23.9982 40.036 24.2866 40.0872 24.5766 40.1351C24.722 40.1595 24.8682 40.183 25.0144 40.2058C25.1896 40.2326 25.3663 40.2586 25.5439 40.2837C25.6636 40.3008 25.7825 40.317 25.903 40.3333C26.1866 40.3706 26.4726 40.4055 26.7602 40.438C26.8912 40.4526 27.0221 40.4665 27.1531 40.4803C27.1531 40.4803 27.1531 40.4803 27.1539 40.4803C27.1908 40.4843 27.227 40.4884 27.2639 40.4916C28.0288 40.5688 28.8081 40.6264 29.5978 40.6654C29.8436 40.6776 30.0911 40.6873 30.3385 40.6955C30.8623 40.7133 31.3901 40.7231 31.922 40.7239C31.9461 40.7239 31.9702 40.7239 31.9951 40.7239C32.02 40.7239 32.0433 40.7239 32.0682 40.7239C32.3663 40.7239 32.6643 40.7206 32.96 40.715C33.1914 40.7101 33.4211 40.7036 33.6509 40.6955C33.6525 40.6955 33.6533 40.6955 33.6549 40.6955C33.9015 40.6873 34.1474 40.6776 34.3916 40.6654C34.5499 40.6573 34.7073 40.6492 34.864 40.6394C35.3348 40.6118 35.8024 40.5769 36.2643 40.5347C36.4555 40.5176 36.6459 40.4989 36.8363 40.4786C36.952 40.4665 37.0677 40.4551 37.1826 40.4421C37.4863 40.408 37.7875 40.3714 38.0864 40.3316C38.2069 40.3154 38.3258 40.2992 38.4455 40.2821C38.4471 40.2797 38.4487 40.2772 38.4503 40.2748C38.4503 40.2772 38.4503 40.2797 38.4503 40.2821C38.3306 40.2992 38.2109 40.3154 38.0912 40.3316C38.2117 40.3154 38.3314 40.2992 38.4503 40.2821C38.6279 40.2569 38.8046 40.2309 38.9798 40.2041C39.42 40.1359 39.8547 40.0612 40.2813 39.98C40.3729 39.963 40.4636 39.9443 40.5544 39.9264C40.7464 39.8882 40.9376 39.8501 41.1264 39.8095C41.2654 39.7794 41.4036 39.7494 41.5418 39.7177C41.6045 39.7031 41.6671 39.6885 41.7298 39.6739C41.9138 39.6308 42.0961 39.587 42.2769 39.5415C42.5717 39.4676 42.8626 39.3904 43.1486 39.3092C43.4089 39.2353 43.6651 39.1598 43.9174 39.0802C43.9632 39.0664 44.0074 39.051 44.0524 39.0372C44.4436 38.9129 44.8252 38.7814 45.1956 38.6441C45.3756 38.5775 45.5547 38.5093 45.7291 38.4395C46.1083 38.2884 46.4706 38.1309 46.8177 37.9685C47.1069 37.8329 47.384 37.6932 47.65 37.5503C47.9159 37.4073 48.1706 37.2603 48.4132 37.1101C48.5104 37.05 48.6052 36.9891 48.6992 36.9282C48.7924 36.8673 48.884 36.8056 48.974 36.7431C49.2431 36.5563 49.4945 36.3646 49.7283 36.1681C49.8063 36.1023 49.8826 36.0365 49.9565 35.9708C50.1051 35.8384 50.2457 35.7036 50.3783 35.5672C51.4396 34.4757 51.9963 33.269 51.9963 31.9997C51.9963 30.7304 51.4396 29.5236 50.3783 28.4322C50.2457 28.2958 50.1051 28.161 49.9565 28.0286C49.8826 27.962 49.8063 27.8962 49.7283 27.8313C49.4937 27.6355 49.2423 27.4431 48.974 27.2563C48.8848 27.1938 48.7932 27.1321 48.6992 27.0711C48.606 27.0102 48.5104 26.9493 48.4132 26.8892C48.1706 26.739 47.9159 26.592 47.65 26.4491C47.384 26.3062 47.1061 26.1665 46.8177 26.0309C46.4714 25.8685 46.1083 25.7109 45.7291 25.5599C45.6415 25.5249 45.5531 25.4908 45.4639 25.4567C45.3748 25.4226 45.2856 25.3893 45.1948 25.3552C44.8718 25.235 44.5408 25.1197 44.201 25.0101C44.1512 24.9938 44.1014 24.9776 44.0516 24.9622C43.7559 24.868 43.4547 24.777 43.147 24.6901C42.9204 24.626 42.6898 24.5642 42.4577 24.505C42.3966 24.4895 42.3363 24.4741 42.2753 24.4587C42.0945 24.4132 41.9122 24.3693 41.7282 24.3263C41.6655 24.3117 41.6036 24.2971 41.5402 24.2825C41.4028 24.2516 41.2646 24.2207 41.1248 24.1907C40.936 24.1501 40.7448 24.1111 40.5528 24.0737C39.8691 23.9389 39.167 23.8196 38.4487 23.7181L38.4544 23.7164Z" fill="#D7D7D7"/>
<path d="M25.0166 40.2058C25.1917 40.2326 25.3685 40.2586 25.546 40.2838C25.6657 40.3008 25.7854 40.3171 25.9052 40.3333C25.7846 40.3171 25.6649 40.3008 25.546 40.2838C25.3685 40.2586 25.1917 40.2326 25.0166 40.2058Z" fill="#D7D7D7"/>
<path d="M31.3174 38.2834C31.5439 38.2867 31.7721 38.2883 32.0003 38.2883C31.7721 38.2883 31.5439 38.2867 31.3174 38.2834Z" fill="#D7D7D7"/>
<path d="M38.4075 14.0583C38.2267 14.0981 38.0435 14.1468 37.858 14.202C37.6724 14.2581 37.4844 14.3214 37.2948 14.3929C36.9148 14.5358 36.5259 14.7096 36.1291 14.9134C36.0174 14.9711 35.9057 15.0312 35.7924 15.0929C35.5667 15.218 35.3393 15.3519 35.1096 15.4965C34.9947 15.5688 34.879 15.6427 34.7633 15.7198C34.2989 16.0276 33.8273 16.3735 33.3485 16.7568C33.2031 16.873 33.0577 16.994 32.9131 17.1158C33.4867 17.6526 34.0587 18.2316 34.6243 18.8463C34.699 18.7846 34.7729 18.7237 34.8477 18.6644C35.3168 18.2884 35.7756 17.9555 36.2206 17.668C36.3693 17.5722 36.5155 17.4812 36.6601 17.3951C36.8047 17.3091 36.9477 17.2287 37.0891 17.1531C37.1598 17.115 37.2297 17.0784 37.2996 17.0435C37.4386 16.9729 37.576 16.9079 37.7101 16.8478C37.9126 16.7577 38.1094 16.6789 38.3006 16.6131C38.3641 16.5912 38.4276 16.5701 38.4902 16.5506C38.8654 16.4336 39.2181 16.3646 39.5419 16.3459C39.6503 16.3394 39.7548 16.3386 39.8568 16.3435C39.9588 16.3484 40.0568 16.3589 40.1516 16.3744C40.199 16.3825 40.2456 16.3914 40.2914 16.4028C40.3597 16.419 40.4264 16.4385 40.4907 16.4613C40.5549 16.484 40.6176 16.51 40.6779 16.5392C40.718 16.5587 40.7574 16.5798 40.7951 16.6017C40.8514 16.6342 40.9052 16.6708 40.9582 16.7097C41.0378 16.769 41.1133 16.8356 41.1848 16.9095C41.2571 16.9834 41.3254 17.0646 41.3897 17.1531C41.4186 17.1929 41.4467 17.2352 41.4748 17.2782C41.5286 17.3619 41.5801 17.4504 41.6283 17.5446C41.6564 17.5998 41.6829 17.6574 41.7094 17.7167C41.7239 17.7492 41.7383 17.7825 41.752 17.8166C41.7881 17.9051 41.8219 17.9969 41.854 18.0927C41.8629 18.1203 41.8725 18.1479 41.8813 18.1764C41.9175 18.2933 41.9512 18.4151 41.9818 18.5426C42.0267 18.7318 42.0637 18.9316 42.0942 19.1427C42.1087 19.2426 42.1207 19.3458 42.132 19.4505C42.1328 19.4611 42.1344 19.4716 42.1352 19.4814C42.144 19.5683 42.1513 19.6568 42.1577 19.7469C42.1754 19.9962 42.185 20.2577 42.185 20.5306C42.185 21.3346 42.1071 22.2059 41.9601 23.1285C42.7683 23.316 43.5484 23.5264 44.2939 23.7594C44.4915 22.6128 44.596 21.5278 44.596 20.5306C44.596 19.7421 44.5333 19.0477 44.4233 18.437C44.3863 18.2332 44.3445 18.0391 44.2979 17.854C44.277 17.772 44.2553 17.6907 44.2329 17.612C44.1879 17.4544 44.1389 17.3034 44.0874 17.1588C44.0617 17.0866 44.0352 17.0159 44.0079 16.9469C43.9533 16.8088 43.8954 16.6773 43.8352 16.5514C43.7452 16.363 43.6488 16.1884 43.5492 16.0268C43.4487 15.8652 43.3443 15.7158 43.2375 15.5785C43.166 15.4868 43.0928 15.4007 43.0189 15.3195C42.945 15.2383 42.8703 15.1619 42.7948 15.0896C42.7193 15.0174 42.6437 14.9508 42.5682 14.8874C42.3786 14.7299 42.1882 14.6 42.0034 14.492C41.8894 14.4254 41.7721 14.3661 41.6532 14.31C41.56 14.267 41.4652 14.2256 41.3688 14.189C41.2957 14.1614 41.2217 14.1363 41.147 14.1127C40.9976 14.0656 40.845 14.0266 40.6891 13.9958C40.6023 13.9787 40.514 13.9641 40.4248 13.9519C40.195 13.9202 39.9596 13.904 39.7186 13.9048C39.5507 13.9048 39.3804 13.9146 39.2076 13.9308C38.9482 13.956 38.6822 13.9982 38.4115 14.0583H38.4075Z" fill="#D7D7D7"/>
<path d="M29.2984 38.2104C29.026 38.1942 28.7545 38.1755 28.4853 38.1552C28.3166 38.1422 28.1487 38.1284 27.9824 38.1138C28.1495 38.1284 28.3174 38.1422 28.4853 38.1552C28.7545 38.1763 29.026 38.195 29.2984 38.2104Z" fill="#D7D7D7"/>
<path d="M41.9588 40.8724C42.1066 41.7949 42.1838 42.6663 42.1838 43.4702C42.1838 43.7528 42.1741 44.0232 42.1548 44.2815C42.1484 44.3676 42.1412 44.452 42.1323 44.5349C42.1211 44.6453 42.1074 44.7533 42.093 44.8589C42.0641 45.0603 42.0287 45.2511 41.9869 45.4322C41.9821 45.4533 41.9773 45.4736 41.9725 45.4939C41.9411 45.623 41.9066 45.7473 41.8688 45.865C41.8271 45.9942 41.7821 46.1168 41.7323 46.2329C41.6993 46.3101 41.6648 46.3848 41.6286 46.4562C41.6101 46.492 41.5917 46.5269 41.5732 46.561C41.5419 46.617 41.5089 46.6706 41.476 46.7226C41.4487 46.7656 41.4205 46.8071 41.3908 46.8477C41.3265 46.9362 41.2583 47.0174 41.186 47.0913C41.1136 47.1652 41.0381 47.2318 40.9594 47.2911C40.9064 47.3309 40.8525 47.3666 40.7963 47.3991C40.6051 47.5103 40.3898 47.5859 40.152 47.6256C40.0572 47.6419 39.9584 47.6516 39.8571 47.6565C39.8065 47.6589 39.7543 47.6598 39.7021 47.6598C39.6499 47.6598 39.596 47.6573 39.5422 47.6541C39.4884 47.6508 39.4338 47.6459 39.3775 47.6403C39.155 47.6167 38.9212 47.5704 38.6762 47.5038C38.1861 47.369 37.6534 47.149 37.0887 46.846C36.9473 46.7705 36.8043 46.6893 36.6596 46.604C36.515 46.518 36.368 46.427 36.2202 46.3312C35.7751 46.0437 35.3164 45.7108 34.8472 45.3348C34.7733 45.2755 34.6986 45.2138 34.6247 45.1529C34.4632 45.0197 34.3009 44.8816 34.1394 44.7403C33.9972 44.6161 33.8542 44.4886 33.712 44.3578C33.283 43.964 32.854 43.5425 32.4274 43.0967C32.2852 42.948 32.143 42.7962 32.0016 42.6419C31.9638 42.6005 31.9261 42.5607 31.8883 42.5185C31.7164 42.3292 31.5453 42.136 31.3741 41.9394C31.252 41.9378 31.1299 41.9362 31.0078 41.9338C30.0349 41.9143 29.074 41.8664 28.1309 41.7916C28.4257 42.1733 28.723 42.5461 29.0226 42.9074C29.0989 43 29.1761 43.091 29.2532 43.1819C29.3303 43.2729 29.4074 43.363 29.4846 43.4524C29.5199 43.493 29.5545 43.5344 29.5898 43.5742C29.6846 43.683 29.7794 43.791 29.875 43.8982C30.0132 44.0533 30.1522 44.206 30.2912 44.357C30.3434 44.4139 30.3956 44.4707 30.4478 44.5267C30.6398 44.7314 30.8319 44.932 31.0247 45.1277C31.1701 45.2755 31.3155 45.4192 31.4617 45.5621C31.6417 45.7376 31.8216 45.9089 32.0024 46.0762C32.0554 46.1249 32.1076 46.1736 32.1607 46.2224C32.1799 46.2402 32.1992 46.2573 32.2185 46.2751C32.388 46.4286 32.5575 46.5789 32.7271 46.7242C32.7897 46.7778 32.8524 46.8306 32.9142 46.8834C33.0597 47.006 33.2051 47.1262 33.3497 47.2432C33.373 47.2618 33.3963 47.2797 33.4204 47.2984C33.5827 47.4275 33.7441 47.5517 33.9048 47.6719C34.0695 47.7954 34.2334 47.9139 34.3957 48.0276C34.5355 48.1251 34.6745 48.2193 34.8127 48.3102C34.9934 48.4288 35.1726 48.5417 35.3501 48.6489C35.4489 48.7082 35.5478 48.7666 35.6466 48.8227C35.8434 48.9347 36.0378 49.0395 36.2314 49.1369C36.3278 49.1857 36.4243 49.2328 36.5199 49.2774C36.6556 49.3416 36.7906 49.4017 36.924 49.4577C37.1457 49.5511 37.365 49.6356 37.5803 49.7086C37.6743 49.7403 37.7675 49.7704 37.8607 49.798C37.9716 49.8313 38.0808 49.8605 38.1901 49.8889C38.3548 49.9311 38.5187 49.9677 38.6794 49.9969C38.8577 50.0294 39.0337 50.0538 39.2064 50.07C39.3767 50.0863 39.5454 50.0952 39.7109 50.096C39.7133 50.096 39.7157 50.096 39.7174 50.096C39.8009 50.096 39.8845 50.0952 39.9664 50.0911C40.2138 50.0806 40.4541 50.0521 40.6878 50.005C41.1554 49.9117 41.5949 49.7468 42.0022 49.5089C42.1131 49.4439 42.2263 49.3716 42.3396 49.2896C42.3774 49.262 42.4151 49.2344 42.4537 49.2043C42.5678 49.1166 42.6819 49.0192 42.7943 48.9112C43.0201 48.6952 43.241 48.4385 43.4475 48.1316C43.5849 47.9269 43.715 47.7004 43.8355 47.4494C43.9858 47.136 44.1207 46.7835 44.2332 46.3888C44.2742 46.2459 44.3111 46.0973 44.3465 45.943C44.3537 45.9121 44.3601 45.8813 44.3674 45.8496C44.4397 45.511 44.4975 45.1447 44.5369 44.7492C44.5763 44.3538 44.5971 43.9282 44.5971 43.471C44.5971 42.4738 44.4927 41.3888 44.2951 40.2422C43.5495 40.4753 42.7694 40.6864 41.9612 40.8732L41.9588 40.8724Z" fill="#D7D7D7"/>
<path d="M20.4536 26.9436C20.4897 27.067 20.5275 27.1921 20.5653 27.3163C20.6801 27.6964 20.8031 28.0797 20.934 28.4662C20.9348 28.4687 20.9356 28.4719 20.9372 28.4744C21.0521 28.8138 21.1734 29.1557 21.3012 29.4992C21.3654 29.6722 21.4313 29.846 21.498 30.0206C21.5582 30.1765 21.6201 30.3332 21.6828 30.49C22.0893 29.6259 22.5279 28.761 22.9963 27.9019C23.0558 27.793 23.1144 27.685 23.1739 27.5762C23.0927 27.335 23.014 27.0946 22.9393 26.8567C22.9208 26.7974 22.9031 26.7381 22.8854 26.6789C22.8236 26.4766 22.7641 26.2761 22.7079 26.0771C22.5376 25.4794 22.3914 24.8939 22.2684 24.3246C22.1809 23.917 22.1054 23.5182 22.0427 23.1276C21.9993 22.8548 21.9607 22.586 21.9294 22.322C21.919 22.2343 21.9093 22.1466 21.9005 22.0597C21.8732 21.7934 21.8523 21.5327 21.8386 21.2777C21.8314 21.1502 21.8266 21.0243 21.8234 20.8993C21.8202 20.7742 21.8177 20.6516 21.8177 20.5298C21.8177 20.2569 21.8274 19.9954 21.8451 19.7461C21.8515 19.656 21.8587 19.5674 21.8676 19.4806C21.8684 19.47 21.87 19.4594 21.8708 19.4497C21.8965 19.2053 21.931 18.9738 21.9744 18.7554C21.9889 18.6823 22.0041 18.6116 22.021 18.5418C22.0507 18.4143 22.0845 18.2925 22.1214 18.1755C22.1439 18.1024 22.168 18.031 22.1937 17.962C22.2122 17.9124 22.2307 17.8637 22.2508 17.8158C22.2644 17.7817 22.2789 17.7484 22.2934 17.7159C22.3191 17.6574 22.3464 17.5998 22.3745 17.5437C22.4227 17.4495 22.4741 17.361 22.5279 17.2774C22.5673 17.2165 22.6075 17.1588 22.6501 17.1044C22.7039 17.0346 22.7593 16.9696 22.818 16.9095C22.8903 16.8356 22.9658 16.769 23.0445 16.7097C23.0975 16.6699 23.1514 16.6342 23.2076 16.6017C23.2574 16.5725 23.3096 16.5473 23.3627 16.5229C23.4727 16.4726 23.5892 16.4328 23.7121 16.4036C23.8037 16.3816 23.8985 16.3662 23.9965 16.3557C24.0463 16.3508 24.0978 16.3467 24.1492 16.3443C24.2496 16.3394 24.354 16.3402 24.4609 16.3467C25.1092 16.3849 25.87 16.622 26.704 17.0451C26.7739 17.08 26.8438 17.1166 26.9145 17.1547C27.1964 17.3058 27.4865 17.478 27.7829 17.6696C27.9307 17.7654 28.081 17.8661 28.232 17.9725C28.383 18.0781 28.5357 18.1893 28.6899 18.3047C28.7671 18.3623 28.8442 18.4216 28.9221 18.4817C29.0001 18.5418 29.078 18.6035 29.1559 18.666C29.2298 18.7253 29.3045 18.787 29.3793 18.8479C29.6837 19.0989 29.9882 19.3644 30.2919 19.6438C30.5779 19.9061 30.8639 20.1814 31.1491 20.4672C31.4343 20.7531 31.7187 21.0511 32.0023 21.3597C32.212 21.5879 32.4217 21.8218 32.6298 22.0622C32.6892 22.1312 32.7495 22.201 32.8089 22.2709C33.0941 22.6054 33.3777 22.9498 33.6589 23.3046C33.9939 23.7277 34.3257 24.1646 34.6535 24.6137C34.7628 24.764 34.8712 24.915 34.9797 25.0677C35.1604 25.3235 35.3396 25.5825 35.518 25.8457C35.7534 26.1932 35.9855 26.5473 36.2145 26.907C36.2643 26.985 36.3133 27.0638 36.3623 27.1426C36.5527 27.4463 36.7415 27.7532 36.9271 28.0651C37.083 28.3266 37.2372 28.5905 37.3899 28.8569C37.7233 29.4407 38.0406 30.0271 38.3435 30.6134C38.5829 31.0763 38.8119 31.5392 39.0312 32.0012C39.3156 32.6006 39.5839 33.1991 39.833 33.7919C39.9695 34.1175 40.1013 34.4424 40.2274 34.7648C40.2451 34.8102 40.262 34.8557 40.2797 34.9012C40.3865 35.1781 40.4901 35.4534 40.5882 35.7271C40.6404 35.8724 40.691 36.017 40.7408 36.1607C40.83 36.1404 40.9192 36.1201 41.0083 36.099C41.7258 35.9293 42.4135 35.7376 43.0666 35.5257C42.8409 34.8614 42.5926 34.189 42.3211 33.5109C42.121 33.0099 41.9089 32.5064 41.6848 32.0012C41.2574 31.0365 40.7882 30.0669 40.2797 29.1013C40.0338 28.6343 39.7783 28.1674 39.514 27.7037C39.502 27.6818 39.4899 27.6607 39.4779 27.6387C39.4658 27.6176 39.453 27.5965 39.4409 27.5754C39.1742 27.1109 38.9018 26.6529 38.6247 26.203C38.464 25.9423 38.3017 25.6849 38.1378 25.4299C37.9956 25.209 37.8526 24.9889 37.7088 24.7721C37.5337 24.5098 37.3577 24.2499 37.1794 23.9941C37.0685 23.8349 36.9576 23.6774 36.846 23.5215C36.5977 23.1747 36.3479 22.8336 36.0948 22.4999C36.0209 22.4024 35.947 22.3066 35.8723 22.21C35.4995 21.7268 35.1219 21.2598 34.7403 20.8091C34.6664 20.7222 34.5925 20.6361 34.5185 20.5501C34.4334 20.451 34.3482 20.3535 34.2631 20.2569C34.0799 20.049 33.8967 19.8452 33.7127 19.6454C33.6605 19.5886 33.6083 19.5317 33.5561 19.4757C33.4605 19.3734 33.3641 19.2718 33.2685 19.172C33.1721 19.0721 33.0765 18.973 32.9801 18.8747C32.9801 18.8747 32.9784 18.8731 32.9776 18.8723C32.8346 18.7269 32.6916 18.5856 32.5478 18.4451C32.3663 18.2681 32.1847 18.0943 32.0023 17.9262C31.9413 17.8694 31.8802 17.8125 31.8191 17.7573C31.7083 17.6566 31.5982 17.5584 31.4873 17.4609C31.3548 17.3448 31.2222 17.2311 31.0897 17.119C30.9443 16.9964 30.7988 16.8762 30.6542 16.7601C30.3883 16.5465 30.1248 16.3451 29.8629 16.1551C29.601 15.965 29.3423 15.7872 29.0852 15.6215C28.9446 15.5306 28.8048 15.4445 28.665 15.36C28.4995 15.2602 28.3348 15.1643 28.1726 15.075C28.0721 15.0198 27.9725 14.967 27.8737 14.9158C27.6753 14.8135 27.4792 14.7193 27.2848 14.6324C27.0904 14.5455 26.8984 14.4668 26.708 14.3953C26.5176 14.3238 26.3304 14.2605 26.1448 14.2044C25.8668 14.1208 25.5937 14.055 25.3261 14.0063C25.1478 13.9738 24.9719 13.9495 24.7991 13.9332C24.6264 13.917 24.4561 13.908 24.2882 13.9072C24.1628 13.9072 24.0383 13.9105 23.9162 13.9186C23.7941 13.9267 23.6728 13.9397 23.5539 13.9568C23.4743 13.9681 23.3956 13.9819 23.3177 13.9974C23.1618 14.0282 23.0092 14.0672 22.8597 14.1143C22.7103 14.1614 22.5641 14.2166 22.4211 14.28C22.2781 14.3433 22.1391 14.4148 22.0025 14.4936C21.8177 14.6016 21.6273 14.7315 21.4377 14.889C21.3622 14.9516 21.2859 15.019 21.2112 15.0912C21.1357 15.1635 21.061 15.2399 20.987 15.3211C20.9131 15.4023 20.84 15.4892 20.7685 15.5801C20.697 15.6719 20.6263 15.7685 20.558 15.8708C20.4552 16.0243 20.3564 16.19 20.2624 16.3695C20.231 16.4296 20.2005 16.4905 20.17 16.553C20.0198 16.8665 19.8848 17.2189 19.7723 17.6136C19.7297 17.7614 19.6912 17.9157 19.655 18.0756C19.6309 18.1828 19.6092 18.2925 19.5883 18.4045C19.5779 18.4606 19.5683 18.5174 19.5586 18.5751C19.463 19.1517 19.4092 19.8005 19.4092 20.5314C19.4092 20.8343 19.4188 21.1445 19.4373 21.462C19.4686 21.9915 19.5257 22.5421 19.6068 23.1089C19.6373 23.3233 19.6735 23.541 19.7113 23.7602C19.7795 24.1541 19.8575 24.5544 19.9475 24.9621C19.9491 24.9678 19.9499 24.9735 19.9515 24.9792C20.0222 25.2991 20.1001 25.624 20.1845 25.9512C20.2688 26.2793 20.3596 26.6098 20.4568 26.9444L20.4536 26.9436Z" fill="#D7D7D7"/>
<path d="M24.0654 37.5706C24.2502 37.6063 24.4358 37.6412 24.6238 37.6737C24.4358 37.6404 24.2502 37.6055 24.0654 37.5706Z" fill="#D7D7D7"/>
<path d="M24.797 50.0693C24.9697 50.0531 25.1457 50.0279 25.324 49.9962C25.5024 49.9637 25.6831 49.9239 25.8663 49.876C25.9579 49.8517 26.0503 49.8265 26.1427 49.7981C26.3283 49.742 26.5163 49.6787 26.7059 49.6072C26.8007 49.5715 26.8963 49.5341 26.9927 49.4943C27.1847 49.4156 27.3791 49.3287 27.5759 49.2337C27.7728 49.1386 27.9704 49.0371 28.1704 48.9267C28.5705 48.7066 28.9786 48.4565 29.3924 48.1755C29.496 48.1057 29.5997 48.0334 29.7041 47.9595C30.0166 47.7378 30.3332 47.4982 30.6521 47.2424C30.7975 47.1263 30.9429 47.0053 31.0875 46.8827C30.5139 46.3459 29.9419 45.7669 29.3763 45.1521C29.3016 45.2139 29.2277 45.2748 29.1538 45.334C29.0759 45.3966 28.9979 45.4583 28.92 45.5184C28.8421 45.5785 28.7649 45.6378 28.6878 45.6954C28.5336 45.8107 28.3809 45.922 28.2299 46.0276C28.0788 46.1331 27.9286 46.2346 27.7808 46.3305C27.6322 46.4263 27.4859 46.5172 27.3413 46.6033C27.1967 46.6894 27.0537 46.7698 26.9123 46.8453C26.8416 46.8835 26.7717 46.92 26.7018 46.955C26.493 47.0605 26.2889 47.1547 26.0905 47.2367C25.8253 47.3464 25.5699 47.4349 25.3248 47.5023C25.2638 47.5194 25.2027 47.5348 25.1433 47.5486C24.9038 47.6054 24.6749 47.6395 24.4588 47.6525C24.4049 47.6558 24.3511 47.6574 24.2989 47.6582C24.1937 47.659 24.0924 47.6542 23.9936 47.6436C23.8956 47.633 23.8 47.6176 23.7092 47.5957C23.6176 47.5738 23.5301 47.547 23.4457 47.5137C23.3613 47.4804 23.281 47.4414 23.2047 47.3967C23.0368 47.2985 22.8833 47.1702 22.7443 47.0126C22.7034 46.9663 22.664 46.9168 22.6254 46.8648C22.5853 46.8112 22.5475 46.7552 22.5106 46.6967C22.4559 46.6098 22.4037 46.5172 22.3555 46.4182C22.3258 46.3581 22.2968 46.2955 22.2695 46.2314C22.243 46.1689 22.2173 46.1031 22.1932 46.0365C22.1683 45.9675 22.1442 45.896 22.1209 45.8229C22.0848 45.706 22.051 45.5842 22.0205 45.4567C21.9715 45.248 21.9305 45.0254 21.8992 44.7908C21.8887 44.712 21.8791 44.6324 21.8702 44.5512C21.8694 44.5398 21.8678 44.5293 21.867 44.5179C21.859 44.4359 21.8518 44.3522 21.8453 44.2678C21.8269 44.0136 21.8172 43.7464 21.8172 43.4679C21.8172 43.3461 21.8188 43.2226 21.8228 43.0984C21.8261 42.9733 21.8317 42.8474 21.8381 42.7199C21.8518 42.4649 21.8727 42.2043 21.9 41.9379C21.9176 41.7641 21.9385 41.5887 21.9626 41.4109C21.9867 41.233 22.0133 41.0527 22.0422 40.8708C22.1048 40.481 22.1796 40.0815 22.2679 39.6738C22.3089 39.4838 22.3523 39.2921 22.3989 39.0989C22.5379 38.519 22.7001 37.9246 22.8849 37.3188C22.9034 37.2595 22.9203 37.2002 22.9388 37.1409C23.0127 36.903 23.0922 36.6626 23.1733 36.4214C23.1983 36.3475 23.2224 36.2744 23.2481 36.1997C23.2529 36.1859 23.2577 36.1713 23.2633 36.1575C23.4071 35.7417 23.5614 35.3211 23.7245 34.898C23.7952 34.7144 23.8683 34.5301 23.9422 34.3449C24.0169 34.1598 24.0924 33.9746 24.1704 33.7887C24.4194 33.1958 24.6877 32.5973 24.9721 31.998C25.1915 31.5359 25.4204 31.0731 25.6598 30.6102C25.9627 30.0238 26.2801 29.4375 26.6135 28.8536C26.8416 28.4541 27.0746 28.0594 27.3108 27.6712C27.4201 27.4926 27.5301 27.3155 27.641 27.1393C27.8507 26.8064 28.062 26.4775 28.2765 26.1543C28.3456 26.0495 28.4155 25.9464 28.4854 25.8424C28.581 25.7019 28.6766 25.5614 28.7722 25.4226C29.022 25.062 29.2751 24.7079 29.5314 24.3628C29.7017 24.1322 29.8736 23.9056 30.0455 23.6823C30.1315 23.571 30.2183 23.4598 30.305 23.3501C30.3179 23.3339 30.3308 23.3177 30.3444 23.3014C30.5919 22.9896 30.8409 22.6842 31.0916 22.3878C31.1261 22.3472 31.1599 22.3074 31.1944 22.2676C31.1325 22.1994 31.0699 22.1312 31.008 22.0646C30.5027 21.5205 29.9933 21.013 29.484 20.546C29.0277 21.0763 28.5753 21.6302 28.1303 22.2059C28.0564 22.3017 27.9816 22.3984 27.9077 22.4958C27.8161 22.6168 27.7246 22.7386 27.6338 22.8613C27.5197 23.0148 27.4072 23.1699 27.2947 23.3266C27.2489 23.3899 27.2032 23.4533 27.1574 23.5174C27.0457 23.6742 26.934 23.8309 26.824 23.9901C26.7002 24.1679 26.5773 24.3474 26.4552 24.5285C26.0889 25.0718 25.7297 25.6288 25.3787 26.1989C25.1015 26.6488 24.8291 27.106 24.5624 27.5713C24.5504 27.5925 24.5375 27.6136 24.5255 27.6347C24.5134 27.6566 24.5014 27.6777 24.4893 27.6997C24.4017 27.8531 24.315 28.0074 24.229 28.1617C24.143 28.3177 24.0571 28.4728 23.9735 28.6295C23.8892 28.7854 23.8064 28.9413 23.7237 29.0981C23.6257 29.2848 23.5284 29.4716 23.4328 29.6584C23.146 30.2196 22.8729 30.7807 22.6142 31.3419C22.513 31.5611 22.4149 31.7796 22.3185 31.998C22.2591 32.132 22.1996 32.266 22.1418 32.4C21.99 32.7516 21.8437 33.1033 21.7039 33.4525C21.6967 33.4703 21.6895 33.489 21.6823 33.5069C21.4115 34.185 21.1625 34.8582 20.9367 35.5216C20.8041 35.9114 20.6812 36.2972 20.5655 36.6797C20.5278 36.8039 20.49 36.929 20.4539 37.0524C20.3567 37.387 20.2659 37.7183 20.1815 38.0456C20.0972 38.3729 20.0192 38.6977 19.9485 39.0177C19.9469 39.0233 19.9461 39.029 19.9445 39.0347C19.8545 39.4424 19.7766 39.8427 19.7083 40.2366C19.689 40.3462 19.6714 40.455 19.6537 40.5639C19.636 40.6727 19.62 40.7807 19.6039 40.8879C19.5227 41.4555 19.4657 42.0053 19.4344 42.5348C19.4159 42.8523 19.4062 43.1633 19.4062 43.4654C19.4062 44.1955 19.4601 44.8452 19.5557 45.4217C19.5653 45.4794 19.575 45.5362 19.5854 45.5923C19.6063 45.7052 19.6288 45.8148 19.6521 45.9212C19.6882 46.0812 19.7268 46.2355 19.7694 46.3832C19.8819 46.7779 20.0168 47.1296 20.1671 47.4438C20.1968 47.5064 20.2281 47.5681 20.2595 47.6274C20.3534 47.8068 20.4523 47.9725 20.5551 48.126C20.6925 48.3306 20.8363 48.5133 20.9841 48.6758C21.058 48.757 21.1327 48.8333 21.2083 48.9056C21.3215 49.0136 21.4348 49.111 21.5489 49.1987C21.5867 49.228 21.6244 49.2564 21.663 49.284C21.7763 49.366 21.8895 49.4383 22.0004 49.5033C22.4085 49.7412 22.848 49.9069 23.3147 49.9995C23.5485 50.0457 23.7887 50.075 24.0362 50.0855C24.1189 50.0888 24.2017 50.0904 24.2852 50.0904C24.2876 50.0904 24.2901 50.0904 24.2925 50.0904C24.458 50.0896 24.6259 50.0807 24.7962 50.0644L24.797 50.0693Z" fill="#D7D7D7"/>
<path d="M32.0003 36.06C34.2189 36.06 36.0173 34.2421 36.0173 31.9996C36.0173 29.7571 34.2189 27.9392 32.0003 27.9392C29.7818 27.9392 27.9834 29.7571 27.9834 31.9996C27.9834 34.2421 29.7818 36.06 32.0003 36.06Z" fill="#D7D7D7"/>
</g>
<defs>
<clipPath id="clip0_446_1082">
<rect width="40" height="36.1905" fill="white" transform="translate(12 13.9048)"/>
</clipPath>
</defs>
</svg>
