<svg width="64" height="64" viewBox="0 0 64 64" fill="none" xmlns="http://www.w3.org/2000/svg">
<g clip-path="url(#clip0_446_1078)">
<path fill-rule="evenodd" clip-rule="evenodd" d="M47.6868 49.206L46.699 49.3377L43.2841 23.3923L44.2719 23.2606L47.6868 49.206ZM45.7018 49.4694L44.714 49.6011L41.2992 23.6557L42.2869 23.524L45.7018 49.4694ZM41.3086 22.4798C40.5842 22.5738 40.0668 23.2512 40.1609 23.9755L43.7263 51.0781C43.7733 51.445 43.5193 51.7742 43.1524 51.8213L41.826 52C41.4591 52.047 41.1298 51.793 41.0828 51.4262L37.5174 24.3236C37.2352 22.1505 38.778 20.1279 40.9605 19.8363L43.604 19.4882C45.7865 19.1966 47.7996 20.7488 48.0913 22.9313L51.6567 50.0339C51.7037 50.4008 51.4497 50.7394 51.0828 50.7864L49.7564 50.9558C49.3895 51.0028 49.0602 50.7488 49.0132 50.3819L45.4478 23.2794C45.3537 22.5644 44.6764 22.0376 43.952 22.1317L41.3086 22.4798ZM35.0057 12C35.3726 12 35.6736 12.301 35.6736 12.6679V51.3321C35.6736 51.699 35.3726 52 35.0057 52H25.6642C25.2973 52 24.9963 51.699 24.9963 51.3321V12.6679C24.9963 12.301 25.2973 12 25.6642 12H34.9963H35.0057ZM13.0019 12C12.635 12 12.334 12.301 12.334 12.6679V51.3321C12.334 51.699 12.635 52 13.0019 52H22.334C22.7009 52 23.0019 51.699 23.0019 51.3321V12.6679C23.0019 12.301 22.7009 12 22.334 12H13.0019ZM14.9963 15.9981C14.6294 15.9981 14.3283 16.2992 14.3283 16.666C14.3283 17.0329 14.6294 17.334 14.9963 17.334H20.3302C20.6971 17.334 20.9981 17.0329 20.9981 16.666C20.9981 16.2992 20.6971 15.9981 20.3302 15.9981H14.9963ZM14.9963 19.9962C14.6294 19.9962 14.3283 19.6952 14.3283 19.3283C14.3283 18.9614 14.6294 18.6604 14.9963 18.6604H20.3302C20.6971 18.6604 20.9981 18.9614 20.9981 19.3283C20.9981 19.6952 20.6971 19.9962 20.3302 19.9962H14.9963ZM14.9963 47.9925C14.6294 47.9925 14.3283 47.6914 14.3283 47.3246C14.3283 46.9577 14.6294 46.6566 14.9963 46.6566H20.3302C20.6971 46.6566 20.9981 46.9577 20.9981 47.3246C20.9981 47.6914 20.6971 47.9925 20.3302 47.9925H14.9963ZM14.9963 43.9944C14.6294 43.9944 14.3283 44.2954 14.3283 44.6623C14.3283 45.0292 14.6294 45.3302 14.9963 45.3302H20.3302C20.6971 45.3302 20.9981 45.0292 20.9981 44.6623C20.9981 44.2954 20.6971 43.9944 20.3302 43.9944H14.9963ZM27.6679 15.9981C27.3011 15.9981 27 16.2992 27 16.666C27 17.0329 27.3011 17.334 27.6679 17.334H33.0019C33.3688 17.334 33.6698 17.0329 33.6698 16.666C33.6698 16.2992 33.3688 15.9981 33.0019 15.9981H27.6679ZM27.6679 19.9962C27.3011 19.9962 27 19.6952 27 19.3283C27 18.9614 27.3011 18.6604 27.6679 18.6604H33.0019C33.3688 18.6604 33.6698 18.9614 33.6698 19.3283C33.6698 19.6952 33.3688 19.9962 33.0019 19.9962H27.6679ZM27.6679 47.9925C27.3011 47.9925 27 47.6914 27 47.3246C27 46.9577 27.3011 46.6566 27.6679 46.6566H33.0019C33.3688 46.6566 33.6698 46.9577 33.6698 47.3246C33.6698 47.6914 33.3688 47.9925 33.0019 47.9925H27.6679ZM27.6679 43.9944C27.3011 43.9944 27 44.2954 27 44.6623C27 45.0292 27.3011 45.3302 27.6679 45.3302H33.0019C33.3688 45.3302 33.6698 45.0292 33.6698 44.6623C33.6698 44.2954 33.3688 43.9944 33.0019 43.9944H27.6679Z" fill="#D7D7D7"/>
</g>
<defs>
<clipPath id="clip0_446_1078">
<rect width="39.3321" height="40" fill="white" transform="translate(12.334 12)"/>
</clipPath>
</defs>
</svg>
