<svg width="25" height="25" viewBox="0 0 25 25" fill="none" xmlns="http://www.w3.org/2000/svg">
<g clip-path="url(#clip0_342_1401)">
<path d="M12.3683 1.70574C15.1736 1.70574 17.809 2.79924 19.791 4.78478C21.7731 6.77032 22.8608 9.40917 22.8538 12.2145C22.841 17.9837 18.0722 22.6768 12.2227 22.6768H3.661L4.77314 21.5437L5.80143 20.4968L4.78711 19.4359C2.83185 17.3921 1.80123 14.7055 1.88508 11.871C1.96427 9.20072 3.05894 6.68065 4.96995 4.77547C6.87979 2.87028 9.40218 1.78027 12.0736 1.70807C12.1715 1.70574 12.2693 1.70458 12.3671 1.70458M12.3671 0.190674C12.2565 0.190674 12.1447 0.191838 12.0317 0.195332C5.70827 0.368848 0.559836 5.50447 0.373509 11.8279C0.274523 15.1876 1.55668 18.248 3.69478 20.4839L1.45886 22.7606C0.935982 23.2928 1.31329 24.1918 2.0586 24.1918H12.2227C18.8629 24.1918 24.3537 18.8594 24.3677 12.218C24.3817 5.579 19.0038 0.191838 12.3671 0.191838V0.190674Z" fill="#D7D7D7"/>
<path d="M8.56517 17.7297C8.56517 15.6335 10.2712 13.9275 12.3674 13.9275C14.4636 13.9275 16.1696 15.6335 16.1696 17.7297H17.9164C17.9164 14.6646 15.4325 12.1807 12.3674 12.1807C9.30232 12.1807 6.81836 14.6646 6.81836 17.7297H8.56517Z" fill="#D7D7D7"/>
<path d="M16.1289 9.45458C15.5513 9.45458 15.0808 8.98411 15.0808 8.40649H13.334C13.334 9.94951 14.5859 11.2014 16.1289 11.2014C17.6719 11.2014 18.9238 9.94951 18.9238 8.40649H17.177C17.177 8.98411 16.7065 9.45458 16.1289 9.45458Z" fill="#D7D7D7"/>
<path d="M8.6738 9.45458C8.09619 9.45458 7.62572 8.98411 7.62572 8.40649H5.87891C5.87891 9.94951 7.13079 11.2014 8.6738 11.2014C10.2168 11.2014 11.4687 9.94951 11.4687 8.40649H9.72189C9.72189 8.98411 9.25141 9.45458 8.6738 9.45458Z" fill="#D7D7D7"/>
</g>
<defs>
<clipPath id="clip0_342_1401">
<rect width="24" height="24" fill="white" transform="translate(0.367188 0.191895)"/>
</clipPath>
</defs>
</svg>
