<svg width="32" height="33" viewBox="0 0 32 33" fill="none" xmlns="http://www.w3.org/2000/svg">
<g clip-path="url(#clip0_320_535)">
<path fill-rule="evenodd" clip-rule="evenodd" d="M15.5524 0.231797C15.703 0.227139 15.8521 0.225586 15.9996 0.225586V0.227139C24.8485 0.227139 32.019 7.41002 32.0003 16.2621C31.9817 25.1172 24.6606 32.2271 15.807 32.2271H2.25489C1.26115 32.2271 0.758067 31.0284 1.45524 30.3188L4.43646 27.2833C1.58567 24.3021 -0.123878 20.2215 0.00810339 15.7419C0.256539 7.31065 7.12111 0.463152 15.5524 0.231797ZM16.0011 18.5415C13.2062 18.5415 10.9315 20.8162 10.9315 23.6111H8.60239C8.60239 19.5244 11.9143 16.2124 16.0011 16.2124C20.0879 16.2124 23.3998 19.5244 23.3998 23.6111H21.0707C21.0707 20.8162 18.796 18.5415 16.0011 18.5415ZM21.0164 12.5775C20.2462 12.5775 19.6189 11.9502 19.6189 11.1801H17.2899C17.2899 13.2374 18.959 14.9066 21.0164 14.9066C23.0737 14.9066 24.7429 13.2374 24.7429 11.1801H22.4138C22.4138 11.9502 21.7865 12.5775 21.0164 12.5775ZM9.67842 11.1801C9.67842 11.9502 10.3057 12.5775 11.0759 12.5775C11.846 12.5775 12.4733 11.9502 12.4733 11.1801H14.8024C14.8024 13.2374 13.1332 14.9066 11.0759 14.9066C9.01852 14.9066 7.34934 13.2374 7.34934 11.1801H9.67842Z" fill="white"/>
</g>
<defs>
<clipPath id="clip0_320_535">
<rect width="32" height="32" fill="white" transform="translate(0 0.227051)"/>
</clipPath>
</defs>
</svg>
