<svg width="25" height="25" viewBox="0 0 25 25" fill="none" xmlns="http://www.w3.org/2000/svg">
<g clip-path="url(#clip0_342_1273)">
<path fill-rule="evenodd" clip-rule="evenodd" d="M12.0194 0.289307C11.9088 0.289307 11.797 0.290471 11.6841 0.293965C5.36061 0.467481 0.212179 5.6031 0.0258529 11.9266C-0.0731329 15.2863 1.20903 18.3467 3.34712 20.5826L1.1112 22.8593C0.588326 23.3914 0.965637 24.2905 1.71094 24.2905H11.875C18.5153 24.2905 24.0061 18.958 24.02 12.3167C24.034 5.67763 18.6562 0.290471 12.0194 0.290471V0.289307ZM8.32668 10.252C8.90429 10.252 9.37476 10.7224 9.37476 11.3001H11.1216C11.1216 9.75704 9.86969 8.50516 8.32668 8.50516C6.78366 8.50516 5.53178 9.75704 5.53178 11.3001L7.27859 11.3001C7.27859 10.7224 7.74907 10.252 8.32668 10.252ZM16.8301 11.3001C16.8301 10.7224 16.3597 10.252 15.7821 10.252C15.2044 10.252 14.734 10.7224 14.734 11.3001L12.9872 11.3001C12.9872 9.75704 14.239 8.50516 15.7821 8.50516C17.3251 8.50516 18.577 9.75704 18.577 11.3001H16.8301Z" fill="#44A5FF"/>
</g>
<defs>
<clipPath id="clip0_342_1273">
<rect width="24" height="24" fill="white" transform="translate(0.0195312 0.290527)"/>
</clipPath>
</defs>
</svg>
