<svg width="25" height="25" viewBox="0 0 25 25" fill="none" xmlns="http://www.w3.org/2000/svg">
<g clip-path="url(#clip0_342_1397)">
<path d="M12.3683 1.70574C15.1736 1.70574 17.809 2.79924 19.791 4.78478C21.7731 6.77032 22.8608 9.40917 22.8538 12.2145C22.841 17.9837 18.0722 22.6768 12.2227 22.6768H3.661L4.77314 21.5437L5.80143 20.4968L4.78711 19.4359C2.83185 17.3921 1.80123 14.7055 1.88508 11.871C1.96427 9.20072 3.05894 6.68065 4.96995 4.77547C6.87979 2.87028 9.40218 1.78027 12.0736 1.70807C12.1715 1.70574 12.2693 1.70458 12.3671 1.70458M12.3671 0.190674C12.2565 0.190674 12.1447 0.191838 12.0317 0.195332C5.70827 0.368848 0.559836 5.50447 0.373509 11.8279C0.274523 15.1876 1.55668 18.248 3.69478 20.4839L1.45886 22.7606C0.935982 23.2928 1.31329 24.1918 2.0586 24.1918H12.2227C18.8629 24.1918 24.3537 18.8594 24.3677 12.218C24.3817 5.579 19.0038 0.191838 12.3671 0.191838V0.190674Z" fill="#D7D7D7"/>
<path d="M8.67385 10.1533C9.25147 10.1533 9.72194 10.6238 9.72194 11.2014L11.4688 11.2014C11.4688 9.6584 10.2169 8.40652 8.67385 8.40652C7.13084 8.40652 5.87896 9.6584 5.87896 11.2014L7.62577 11.2014C7.62577 10.6238 8.09624 10.1533 8.67385 10.1533Z" fill="#D7D7D7"/>
<path d="M16.1289 10.1533C16.7065 10.1533 17.177 10.6238 17.177 11.2014L18.9238 11.2014C18.9238 9.6584 17.6719 8.40652 16.1289 8.40652C14.5859 8.40652 13.334 9.6584 13.334 11.2014L15.0808 11.2014C15.0808 10.6238 15.5513 10.1533 16.1289 10.1533Z" fill="#D7D7D7"/>
</g>
<defs>
<clipPath id="clip0_342_1397">
<rect width="24" height="24" fill="white" transform="translate(0.367188 0.191895)"/>
</clipPath>
</defs>
</svg>
